<?xml version="1.0" encoding="utf-8"?>
<svg xmlns="http://www.w3.org/2000/svg" viewBox="0 20 516.1 330" aria-hidden="true">
  <g transform="translate(-27.917 -57.723)">
    <g transform="translate(27.917 57.723)">
      <path id="Path_599" fill="currentColor" d="M450.7,167.7c-12.9,20.5-12.8,42.9-26.2,74.9c-9.8-1-19.6-1.4-29.4-1
				c1.5-7.7,2.2-15.5,2.1-23.3c-0.3-15.4-1.9-30.8-4.8-45.9C411.6,168.7,431.1,167.1,450.7,167.7z M388,221.2c0,7-0.6,14-1.9,20.9
				c-26.3,2.1-51.6,11.1-73.4,26c18.7-20.3,29.1-46.9,29.2-74.5c0-0.9,0-1.7-0.1-2.6c12.7-7.4,26.3-12.9,40.5-16.4
				C385.5,190,387.4,205.6,388,221.2z M300.9,280.8c24.2-18.7,53.3-29.7,83.8-31.9c-8.7,32.5-32.6,45.5-51.5,45.5
				C321,294.4,309.4,289.5,300.9,280.8z M335.3,202c0,34.2-19.2,59.3-36.1,75.5c-2.4-5.6-3.6-11.5-3.5-17.6
				c0-20.6,12-45.7,39.4-64.5C335.3,197.6,335.3,199.8,335.3,202L335.3,202z M292,258.9c0,5,0.8,10,2.5,14.7
				c-4.8-9.2-7.3-19.5-7.3-29.9c0-33.9,15.3-65.6,35.8-91.3c5.7,11.3,9.5,23.4,11.4,35.8C308.1,205.9,292,230.6,292,258.9L292,258.9
				z M307.3,289.4c7.7,5.3,16.9,8.2,26.2,8.4c29.5,0,51.6-18.2,60-49.4c9.3-0.3,18.7,0.1,28,1.1c0,0.1-0.1,0.1-0.1,0.1
				c-16.2,35.1-46.5,53.7-76.3,53.7C331.2,303.9,317.6,298.9,307.3,289.4z M382.8,101.5c-7.1,21.6-5,44-1.6,65.7
				c-13.9,3.8-27.2,9.3-39.7,16.5c-1.4-13.8-5.2-27.3-11.2-39.9C345.3,126.9,363.1,112.5,382.8,101.5L382.8,101.5z M286.6,74.1
				c6.7,29.3,21.7,50.1,33.3,72.1c-16.5,20.4-28,44.4-33.3,70.1h0.6V74.1L286.6,74.1z M309.4,294.4c10.9,8.4,24.2,12.9,37.9,12.9
				c32.6,0,64.7-18.7,83.7-56.6c15.9,2.5,31.6,6.6,46.6,12.3C443.7,272,406.8,313,360.4,313c-21.3,0-38.5-7.1-49.8-17.8L309.4,294.4
				z M282.6,248.8c6,36,34.1,69.5,82.6,69.5c56,0,103.7-52.1,135.9-53.5c2.4-0.1,2.4-1.2,0.5-1.9c-21.6-9-44.1-15.4-67.2-19
				c14-31.7,14.3-59.3,27.8-80.9c1.2-1.9,1-2.5-1.2-2.7c-23.3-2-46.8-0.5-69.7,4.5c-3.9-24.5-6.8-48.5,2.6-76
				c0.7-2.1,0.3-3.1-1.9-2.1c-24.6,12.7-46.5,30-64.7,50.8C312,106.9,289.7,78.7,283.6,35c-0.4-2.7-1.8-2.5-1.8,0v199.3
				c0,17.5-12.2,25.6-23.8,25.6c-11.6,0-23.8-8.2-23.8-25.6V35.1c0-2.5-1.4-2.7-1.8,0c-6.1,43.6-28.4,71.9-43.6,102.4
				c-18.2-20.9-40.2-38.1-64.7-50.8c-2.1-1-2.6-0.1-1.9,2.1c9.5,27.6,6.6,51.5,2.6,76c-22.9-5-46.4-6.5-69.7-4.5
				c-2.1,0.2-2.3,0.8-1.2,2.7c13.5,21.6,13.9,49.2,27.8,80.9c-23.1,3.6-45.7,10-67.2,19c-1.9,0.8-1.9,1.9,0.5,1.9
				c32.1,1.3,79.9,53.5,135.9,53.5c48.6,0,76.6-33.5,82.6-69.5l-1,0.2c3.9,8.8,12.3,14.7,21.9,15.4l0.1-0.6
				c-13.2,1.4-23.8,11.4-23.8,24.2c0,20.4,20,27,25.9,42.4c0.4,1,0.6,2.1,1.5,2.1c0.9,0,1-1,1.5-2.1c6-15.4,25.9-22,25.9-42.4
				c-0.6-13-10.9-23.5-23.8-24.2l0.1,0.6c9.6-0.7,18-6.6,21.9-15.4L282.6,248.8z M123.7,172.5c-2.9,15.1-4.5,30.5-4.8,45.9
				c0,7.8,0.7,15.6,2.1,23.3c-9.8-0.4-19.6-0.1-29.4,1c-13.4-32-13.3-54.4-26.2-74.9C84.9,167.1,104.4,168.7,123.7,172.5
				L123.7,172.5z M133.7,174.7c14.2,3.5,27.8,9.1,40.5,16.4c0,0.9-0.1,1.7-0.1,2.6c0,27.6,10.5,54.2,29.2,74.5
				c-21.8-14.9-47.1-23.9-73.4-26c-1.3-6.9-1.9-13.9-1.9-20.9C128.7,205.6,130.6,190.1,133.7,174.7L133.7,174.7z M182.9,294.5
				c-18.9,0-42.8-13.1-51.5-45.5c30.5,2.1,59.6,13.2,83.8,31.9C206.7,289.5,195.1,294.4,182.9,294.5z M181,195.5
				c27.4,18.8,39.4,43.9,39.4,64.5c0.1,6-1.1,12-3.5,17.6c-16.9-16.2-36.1-41.3-36.1-75.5C180.8,199.8,180.8,197.6,181,195.5
				L181,195.5z M181.7,188.3c1.8-12.5,5.7-24.6,11.4-35.8c20.5,25.6,35.8,57.4,35.8,91.3c0,10.4-2.5,20.6-7.3,29.9
				c1.7-4.7,2.5-9.7,2.5-14.7C224.1,230.6,208,205.9,181.7,188.3L181.7,188.3z M171,303.3c-29.8,0-60.1-18.6-76.3-53.7
				c0-0.1-0.1-0.1-0.1-0.1c9.3-1,18.6-1.4,28-1.1c8.4,31.2,30.5,49.4,60,49.4c9.4-0.1,18.5-3,26.2-8.4
				C198.6,298.9,184.9,303.9,171,303.3L171,303.3z M185.8,143.8c-6,12.6-9.8,26.1-11.2,39.9c-12.5-7.2-25.8-12.7-39.7-16.5
				c3.4-21.8,5.5-44.1-1.6-65.7C153.1,112.6,170.8,126.9,185.8,143.8L185.8,143.8z M228.8,74.1v142.2h0.6
				c-5.3-25.7-16.7-49.7-33.3-70.1c11.6-22.1,26.6-42.8,33.3-72.1L228.8,74.1z M205.5,295.1c-11.3,10.7-28.5,17.8-49.8,17.8
				c-46.4,0-83.3-41-117.2-49.9c15.1-5.7,30.7-9.8,46.6-12.3c19,37.9,51.1,56.6,83.7,56.6c13.7,0,27.1-4.6,37.9-12.9L205.5,295.1z"
				/>
    </g>
  </g>
</svg>
